<?xml version="1.0" standalone="no"?>
<!DOCTYPE svg PUBLIC "-//W3C//DTD SVG 20010904//EN"
 "http://www.w3.org/TR/2001/REC-SVG-20010904/DTD/svg10.dtd">
<svg version="1.0" xmlns="http://www.w3.org/2000/svg"
 width="5407.000000pt" height="3452.000000pt" viewBox="0 0 5407.000000 3452.000000"
 preserveAspectRatio="xMidYMid meet">
<metadata>
Created by potrace 1.15, written by Peter Selinger 2001-2017
</metadata>
<g transform="translate(0.000000,3452.000000) scale(0.100000,-0.100000)"
fill="#000000" stroke="none">
<path d="M16645 34513 c-880 -43 -1536 -186 -2102 -458 -845 -405 -1365 -1093
-1489 -1970 -24 -166 -24 -470 0 -630 119 -813 627 -1444 1453 -1808 569 -250
1285 -393 2068 -413 121 -3 234 -7 251 -10 46 -7 117 -74 144 -136 21 -49 22
-57 10 -123 -19 -106 -83 -362 -149 -593 -33 -114 -80 -286 -105 -382 -63
-246 -380 -1352 -708 -2470 -44 -151 -113 -387 -153 -525 -41 -137 -116 -396
-169 -575 -52 -179 -179 -611 -281 -960 -103 -349 -197 -671 -210 -715 -13
-44 -103 -350 -200 -680 -97 -330 -192 -652 -210 -715 -170 -581 -456 -1548
-462 -1561 -7 -15 -36 -5 -217 68 -847 341 -1748 568 -2681 672 -410 46 -587
55 -1125 56 -526 0 -664 -6 -1060 -46 -2903 -293 -5550 -1818 -7285 -4199
-921 -1264 -1552 -2755 -1814 -4290 -95 -552 -137 -1008 -148 -1585 -30 -1657
339 -3281 1082 -4765 997 -1991 2624 -3618 4615 -4615 1041 -521 2147 -857
3310 -1004 444 -57 760 -75 1280 -75 762 -1 1364 59 2075 204 1201 246 2368
716 3415 1376 1009 635 1921 1465 2661 2419 1158 1494 1886 3291 2089 5160 70
648 79 1379 24 2010 -244 2832 -1643 5428 -3876 7195 -60 47 -108 92 -108 100
1 27 156 541 163 541 4 0 361 -321 794 -713 433 -392 841 -762 907 -822 67
-60 162 -146 211 -191 50 -45 333 -302 630 -570 297 -269 567 -513 600 -544
33 -31 152 -139 265 -241 113 -101 300 -270 415 -375 116 -105 595 -539 1065
-965 470 -426 860 -779 866 -785 6 -5 96 -87 200 -181 104 -94 370 -335 591
-535 221 -200 872 -789 1447 -1309 826 -747 1044 -949 1041 -965 -29 -149 -39
-292 -40 -575 0 -310 6 -399 46 -625 271 -1566 1551 -2775 3134 -2960 465 -55
1019 -7 1435 124 35 11 68 17 71 13 10 -10 519 -1142 519 -1152 0 -5 -136 -10
-302 -12 l-303 -3 -78 -37 c-105 -50 -185 -130 -234 -233 -32 -68 -37 -88 -41
-174 -5 -106 9 -175 53 -261 54 -104 162 -193 283 -230 63 -20 94 -20 1353
-20 882 0 1303 3 1336 10 125 28 259 133 317 248 132 261 18 563 -254 675 -54
22 -66 22 -559 27 l-504 5 -142 315 c-458 1014 -565 1253 -565 1260 0 4 42 37
93 74 220 156 433 344 610 541 95 106 282 345 322 413 l19 32 674 -2 675 -3
42 -190 c187 -835 446 -1570 821 -2326 217 -438 394 -744 659 -1144 1272
-1917 3181 -3373 5360 -4088 1635 -537 3376 -655 5075 -346 1184 216 2349 654
3395 1277 1081 644 2056 1501 2836 2492 726 923 1289 1963 1664 3070 274 813
435 1601 511 2505 21 258 30 1025 15 1306 -37 675 -128 1300 -282 1927 -943
3849 -4048 6840 -7926 7636 -496 102 -1020 169 -1547 197 -287 15 -1054 6
-1306 -15 -843 -71 -1429 -184 -2308 -443 -31 -10 -56 -12 -61 -7 -4 5 -589
1046 -1300 2314 -1301 2320 -1399 2488 -1576 2710 -167 209 -435 487 -603 625
-34 28 -61 56 -61 62 -1 9 999 2422 1141 2755 l20 47 566 4 c538 4 572 5 664
26 241 53 435 155 608 318 255 239 390 556 390 913 0 349 -120 640 -365 885
-186 187 -395 298 -663 352 -82 17 -298 18 -4042 18 -3781 0 -3959 -1 -4045
-18 -254 -51 -460 -158 -643 -332 -187 -178 -308 -397 -363 -657 -30 -143 -30
-351 0 -495 54 -258 160 -453 345 -639 149 -149 296 -241 487 -305 202 -68 24
-62 2285 -68 l2051 -6 -356 -855 c-338 -809 -358 -855 -381 -854 -14 0 -77 8
-140 17 -63 10 -158 22 -210 27 -61 6 -2851 10 -7737 10 -5346 0 -7643 3
-7643 11 0 19 121 463 215 789 184 637 254 952 297 1340 16 148 16 566 -1 695
-51 410 -186 764 -400 1053 -81 109 -254 287 -371 381 -269 216 -532 344 -850
414 -91 20 -132 21 -1075 26 -747 5 -985 9 -1001 18 -63 36 -101 121 -83 186
11 40 49 90 83 110 16 9 823 13 3721 17 l3700 5 100 27 c247 67 437 176 603
346 231 236 354 541 354 877 0 354 -131 659 -388 905 -168 162 -334 253 -578
318 l-101 27 -3290 1 c-1809 0 -3317 -1 -3350 -3z m17142 -10065 c-3 -7 -162
-391 -355 -853 -192 -462 -709 -1702 -1147 -2755 -439 -1053 -1096 -2630
-1460 -3505 -364 -874 -841 -2021 -1061 -2547 l-398 -958 -121 0 c-254 0 -541
-40 -874 -122 -13 -3 -76 129 -331 697 -32 72 -101 226 -154 343 -53 118 -96
218 -96 223 0 5 119 9 288 9 160 0 307 5 332 11 168 39 315 181 360 348 17 63
14 191 -5 258 -24 84 -48 124 -111 193 -62 67 -110 98 -200 132 l-59 23 -1265
3 c-857 2 -1288 -1 -1335 -8 -198 -30 -364 -185 -404 -378 -52 -252 104 -501
354 -567 49 -12 138 -15 518 -15 l458 0 26 -57 c43 -100 715 -1588 719 -1594
2 -4 -38 -33 -89 -65 -50 -32 -139 -94 -196 -137 -57 -43 -109 -76 -115 -74
-9 4 -510 456 -901 812 -49 45 -576 522 -1170 1060 -1214 1099 -1248 1130
-1325 1201 -30 27 -75 69 -100 91 -199 180 -701 634 -1129 1022 -282 256 -524
475 -537 487 -13 12 -61 55 -106 96 -112 102 -718 650 -958 867 -107 97 -296
268 -420 381 -245 222 -802 727 -1490 1349 -239 217 -475 431 -525 477 -49 45
-265 240 -480 434 -214 194 -394 356 -398 360 -9 8 13 83 323 1140 95 322 239
815 321 1095 82 281 151 516 154 523 3 9 1560 12 7736 12 6181 0 7730 -3 7726
-12z m2310 -1393 c50 -88 110 -196 135 -240 50 -89 847 -1510 1198 -2135 485
-862 912 -1625 913 -1631 1 -4 -65 -51 -148 -104 -844 -546 -1627 -1236 -2286
-2015 -960 -1135 -1671 -2486 -2062 -3916 -182 -665 -314 -1457 -342 -2059 -3
-71 -8 -140 -11 -152 l-4 -23 -305 0 c-168 0 -305 1 -305 3 0 1 -15 76 -34
167 -63 307 -154 574 -291 855 -184 377 -371 639 -676 950 l-167 170 623 1495
c342 822 991 2382 1443 3465 627 1507 2106 5059 2208 5304 8 19 16 32 18 30 2
-2 44 -76 93 -164z m-25252 -4995 c934 -72 1784 -286 2614 -655 118 -53 150
-71 147 -84 -3 -9 -53 -178 -111 -376 -59 -198 -154 -520 -212 -715 -57 -195
-162 -551 -233 -790 -176 -597 -276 -857 -501 -1300 -485 -959 -1148 -1733
-1939 -2265 -265 -178 -628 -370 -915 -485 -158 -63 -253 -114 -354 -191 -245
-184 -422 -476 -476 -786 -20 -113 -19 -328 1 -434 97 -514 476 -902 984
-1010 145 -30 364 -31 500 -1 178 39 479 162 860 353 1415 709 2581 1868 3435
3414 201 363 421 841 568 1230 96 256 145 411 373 1185 102 349 190 641 194
648 8 15 223 -210 415 -433 1003 -1167 1639 -2598 1824 -4110 42 -340 55 -557
55 -945 0 -380 -9 -559 -44 -877 -165 -1473 -737 -2845 -1671 -4008 -1137
-1415 -2743 -2396 -4506 -2754 -1229 -249 -2502 -200 -3702 144 -1685 483
-3166 1534 -4197 2977 -680 953 -1134 2047 -1333 3214 -112 655 -136 1429 -65
2099 156 1481 728 2874 1657 4039 1010 1265 2388 2187 3932 2631 572 164 1149
261 1750 295 190 10 766 4 950 -10z m33345 10 c1640 -91 3183 -681 4455 -1704
416 -334 867 -785 1201 -1201 833 -1036 1387 -2268 1608 -3580 112 -663 135
-1399 65 -2085 -95 -939 -367 -1864 -796 -2708 -1158 -2280 -3349 -3849 -5868
-4202 -328 -46 -548 -61 -947 -67 -393 -6 -622 3 -918 33 -1787 183 -3449 976
-4720 2253 -823 827 -1442 1811 -1833 2912 -48 134 -143 441 -163 521 l-6 28
3618 3 c3386 2 3626 4 3733 20 804 124 1389 486 1743 1079 307 514 378 1135
204 1769 -43 155 -90 284 -165 449 -48 105 -589 1076 -2251 4035 -136 242
-417 744 -625 1115 -209 371 -434 772 -500 890 -77 135 -118 217 -111 222 17
10 365 84 526 112 290 51 626 90 900 105 215 12 640 12 850 1z m-3355 -3457
c688 -1225 1284 -2288 1326 -2362 41 -75 243 -434 447 -798 205 -364 372 -665
372 -668 0 -3 -1568 -5 -3485 -5 l-3485 0 5 58 c31 364 59 581 110 863 261
1424 912 2737 1900 3829 235 260 603 606 890 836 203 164 634 473 660 474 6 0
573 -1002 1260 -2227z m-11218 -3118 c480 -105 851 -440 1002 -903 46 -140 64
-282 58 -452 -5 -156 -21 -243 -67 -381 -122 -364 -425 -678 -787 -815 -190
-71 -452 -102 -644 -75 -572 81 -1011 491 -1135 1061 -28 126 -26 411 3 536
130 556 559 957 1118 1044 87 13 366 4 452 -15z"/>
</g>
</svg>
