<svg xmlns="http://www.w3.org/2000/svg"
  data-name="Layer 1"
  fill="url(#grad2)"
  viewBox="0 0 100 100" x="0px" y="0px"><title>electronic jadi</title>
  <defs>
   <linearGradient id="grad2" x1="0%" y1="0%" x2="0%" y2="100%">
     <stop offset="0%" style="stop-color:rgb(117,214,167);stop-opacity:1" />
     <stop offset="100%" style="stop-color:rgb(87,192,241);stop-opacity:1" />
   </linearGradient>
 </defs>
  <path d="M81.51,32.82h-63a6.75,6.75,0,0,0-6.74,6.74V60.44a6.75,6.75,0,0,0,6.74,6.74h63a6.75,6.75,0,0,0,6.74-6.74V39.56A6.75,6.75,0,0,0,81.51,32.82ZM19.87,65.68V63.86H80.13v1.82Zm.08-3.32a3.74,3.74,0,0,1,3.66-3H76.39a3.74,3.74,0,0,1,3.66,3Zm66.8-1.92a5.24,5.24,0,0,1-5.12,5.23V63.11a5.24,5.24,0,0,0-5.24-5.24H23.61a5.24,5.24,0,0,0-5.24,5.24v2.56a5.24,5.24,0,0,1-5.12-5.23V39.56a5.25,5.25,0,0,1,5.24-5.24h63a5.25,5.25,0,0,1,5.24,5.24Z"/><path d="M79.69,37.13A3.31,3.31,0,1,0,83,40.44,3.31,3.31,0,0,0,79.69,37.13Zm0,5.12a1.81,1.81,0,1,1,1.81-1.81A1.81,1.81,0,0,1,79.69,42.25Z"/><path d="M72.69,38.46a2,2,0,1,0,2,2A2,2,0,0,0,72.69,38.46Zm0,2.46a.48.48,0,1,1,.48-.48A.48.48,0,0,1,72.69,40.92Z"/><path d="M68.14,38.46a2,2,0,1,0,2,2A2,2,0,0,0,68.14,38.46Zm0,2.46a.48.48,0,1,1,.48-.48A.48.48,0,0,1,68.14,40.92Z"/>
</svg>
