<svg xmlns:dc="http://purl.org/dc/elements/1.1/"
  xmlns:cc="http://creativecommons.org/ns#"
  xmlns:rdf="http://www.w3.org/1999/02/22-rdf-syntax-ns#"
  xmlns:svg="http://www.w3.org/2000/svg"
  xmlns="http://www.w3.org/2000/svg"
  xmlns:sodipodi="http://sodipodi.sourceforge.net/DTD/sodipodi-0.dtd"
  xmlns:inkscape="http://www.inkscape.org/namespaces/inkscape"
  version="1.1" x="0px" y="0px" viewBox="0 0 100 100">
  <g transform="translate(0,-952.36218)">
    <defs>
     <linearGradient id="grad2" x1="0%" y1="0%" x2="0%" y2="100%">
       <stop offset="0%" style="stop-color:rgb(117,214,167);stop-opacity:1" />
       <stop offset="100%" style="stop-color:rgb(87,192,241);stop-opacity:1" />
     </linearGradient>
   </defs>
    <path style="text-indent:0;text-transform:none;direction:ltr;block-progression:tb;baseline-shift:baseline;color:#000000;enable-background:accumulate;" d="m 50,959.8623 c -15.125,-0.0442 -27,12.21693 -27,27.25883 0,6.53088 3.3626,12.29949 6.5938,17.55707 3.2311,5.2576 6.2812,10.0548 6.2812,14.2397 0.041,3.9767 0.088,8.0421 0.125,11.4542 0.01,2.3421 0.644,4.2995 2,5.6333 1.0092,0.9927 2.3594,1.6001 3.9688,1.8465 0.4563,3.9475 3.8675,7.0103 7.9687,7.0103 4.0995,0 7.4789,-3.0652 7.9375,-7.0103 1.6706,-0.2276 3.0856,-0.8159 4.125,-1.8465 1.3517,-1.3402 2,-3.3076 2,-5.6646 -0.041,-3.9873 -0.091,-8.0287 -0.125,-11.4543 0.015,-4.1689 3.1227,-8.9626 6.4063,-14.2083 C 73.573,999.41924 77,993.65345 77,987.12108 76.875,971.83584 64.875,959.81817 50,959.8623 z m 0,2.00295 c 13.8141,0 25,11.28714 25,25.25588 0,5.82229 -3.1378,11.27124 -6.4062,16.49297 -3.0542,4.8794 -6.155,9.5387 -6.5625,14.3023 -2.0208,0 -4.7347,-0.023 -7.25,-0.031 0.9663,-6.2149 1.8267,-13.1303 2.7187,-19.15315 1.2197,0.10612 2.6594,-0.0687 3.7188,-0.46944 1.1349,-0.4119 1.4968,-1.21323 1.7812,-2.19072 0,-1.14181 -0.059,-2.79089 -1.5,-4.16237 -1.625,-1.04566 -4.625,-1.04566 -5.2812,1.68999 -0.1692,1.00028 -0.3022,2.03636 -0.4375,2.97312 -1.6374,-0.1753 -3.1778,-0.21588 -4.3124,-0.97018 0.837,-0.79479 1.6591,-1.80702 2.2187,-2.69146 0.5185,-0.82882 0.9063,-1.64398 0.9063,-2.56627 -0.3128,-2.53526 -1.7189,-4.48822 -4.6563,-4.47533 -3.0626,-0.0129 -4.487,2.25809 -4.5312,4.47533 0,0.92229 0.3877,1.73745 0.9062,2.56627 0.681,1.06035 1.444,1.91264 2.2188,2.69146 -1.3123,0.82041 -2.8818,1.17202 -4.2813,1.34573 -0.1627,-1.02394 -0.3079,-2.43085 -0.4687,-3.34867 -0.9064,-1.73417 -2.9064,-2.73565 -5.2813,-1.68999 -1.4413,1.37148 -1.5,3.02056 -1.5,4.16237 0,0.99662 0.7066,1.79961 1.5,2.22202 1.4086,0.63641 2.6327,0.75677 4.0313,0.68856 0.9171,6.00033 1.8626,12.78113 2.7187,18.90283 -2.6465,0 -5.4887,0 -7.5312,0.031 -0.3999,-4.7564 -3.4396,-9.393 -6.4375,-14.271 -3.2083,-5.22043 -6.2813,-10.68984 -6.2813,-16.52432 C 24.875,972.83731 35.875,961.82111 50,961.86525 z m 0,26.03828 c 1.875,-0.0442 2.2108,1.26409 2.5938,2.44109 -0.3944,1.54526 -1.5526,2.82513 -2.5938,3.912 -1.197,-1.18015 -2.1306,-2.32493 -2.5937,-3.912 0.2378,-1.57064 0.4687,-2.48522 2.5937,-2.44109 z m -8.1876,6.04013 c 0.1441,0.82284 0.2912,2.12134 0.4375,3.03572 -1.341,0.17196 -2.3765,-0.39137 -3.25,-0.90764 0,-1.14181 -0.084,-1.77929 0.875,-2.69146 1.0001,-0.51352 1.4037,0.11874 1.9375,0.56338 z m 18.2814,-0.56333 c 0.9586,0.91217 0.9062,1.54965 0.9062,2.69146 -0.9358,0.65414 -2.2561,0.63964 -3.2187,0.68851 0.1665,-0.99093 0.2756,-2.0181 0.4063,-2.97312 0.6874,-0.92042 1.2858,-0.50171 1.9062,-0.40685 z M 50,996.94808 c 0.875,0.92604 3.8395,1.43117 5.5001,1.56475 -0.9107,6.15907 -1.8098,13.17627 -2.7813,19.37227 -1.9616,-0.01 -3.516,0 -5.4687,0 -0.8518,-6.0861 -1.7934,-12.8812 -2.7188,-18.96542 1.9903,-0.54006 4.3437,-1.04556 5.4687,-1.9716 z" fill="url(#grad2)" fill-opacity="1" stroke="none" marker="none" visibility="visible" display="inline" overflow="visible"/></g></svg>
