<svg xmlns:dc="http://purl.org/dc/elements/1.1/"
  xmlns:cc="http://creativecommons.org/ns#"
  xmlns:rdf="http://www.w3.org/1999/02/22-rdf-syntax-ns#"
  xmlns:svg="http://www.w3.org/2000/svg"
  xmlns="http://www.w3.org/2000/svg"
  xmlns:sodipodi="http://sodipodi.sourceforge.net/DTD/sodipodi-0.dtd"
  xmlns:inkscape="http://www.inkscape.org/namespaces/inkscape"
  version="1.1" x="0px" y="0px" fill="url(#grad2)" viewBox="0 0 100 100">
  <g transform="translate(0,-952.36218)">
    <defs>
     <linearGradient id="grad2" x1="0%" y1="0%" x2="0%" y2="100%">
       <stop offset="0%" style="stop-color:rgb(117,214,167);stop-opacity:1" />
       <stop offset="100%" style="stop-color:rgb(87,192,241);stop-opacity:1" />
     </linearGradient>
   </defs>
    <path style="text-indent:0;text-transform:none;direction:ltr;block-progression:tb;baseline-shift:baseline;color:#000000;enable-background:accumulate;" d="m 50,957.36218 c -15.9947,0 -29,13.14109 -29,29.24922 0,7.23397 3.6843,13.34342 6.9688,18.6444 3.2844,5.301 6.0312,9.9258 6.0312,13.17 -10e-4,3.7662 0,7.5984 0,11.3869 0,2.7038 0.7614,5.2995 2.5938,7.1011 0.9805,0.9641 2.1803,1.6301 3.5,2.0334 0.7404,4.7416 4.9254,8.415 9.9062,8.415 4.9808,0 9.1971,-3.6734 9.9375,-8.415 1.3206,-0.4108 2.5195,-1.0929 3.5,-2.0647 1.818,-1.8016 2.5625,-4.366 2.5625,-7.0698 0,-3.787 0,-7.617 0,-11.3869 0,-3.2441 2.7782,-7.8678 6.0625,-13.17 C 75.3468,999.95369 79,993.84095 79,986.6114 79,970.50327 65.9947,957.36218 50,957.36218 z m 0,6.00626 c 12.7239,0 23,10.3529 23,23.24296 0,5.1198 -2.8157,10.26248 -6.0312,15.4536 -2.6647,4.3018 -5.5743,8.5896 -6.5313,13.3577 -1.3631,0 -2.9962,0 -4.5,0 0.8577,-5.6405 1.6427,-11.6634 2.4375,-17.1429 1.9278,-0.0383 3.429,-0.54186 4.7813,-1.56413 0.4861,-0.50558 0.8437,-1.32289 0.8437,-2.12721 0,-1.14132 -0.1298,-3.27969 -1.8125,-4.88009 -2.1915,-1.51243 -4.2508,-0.97348 -6,0.37539 -0.9658,1.18666 -1.0415,2.48474 -1.2187,3.91033 -0.6498,-0.0879 -1.5783,-0.0907 -1.9062,-0.1877 1.2799,-1.40632 2.5367,-3.24157 2.5625,-4.91136 -0.2188,-3.00313 -2.6563,-5.54985 -5.75,-5.50574 -2.9063,-0.0441 -5.4688,2.50261 -5.4688,5.50574 0.1548,2.05962 1.3472,3.5455 2.5313,4.94265 -0.5234,0.19037 -1.1858,0.31954 -1.8125,0.43795 -0.082,-1.56089 -0.5276,-2.90616 -1.2813,-4.19187 -1.7046,-1.58014 -4.6544,-1.58925 -6,-0.37539 -1.6826,1.6004 -1.8437,3.73877 -1.8437,4.88009 0,1.42163 1.0486,2.5741 2.0312,3.09697 1.2736,0.60789 2.4385,0.76988 3.6563,0.84463 0.8193,5.45084 1.6608,11.35614 2.4375,16.89264 -1.5231,0 -3.2043,-0.012 -4.5625,0 -0.9578,-4.7663 -3.8361,-9.0581 -6.5,-13.3577 -3.2155,-5.18958 -6.0625,-10.32752 -6.0625,-15.4536 C 27,974.37991 37,963.36844 50,963.36844 z m 0,24.08759 c 1,0 1.625,0.43795 1.625,1.439 0,1.00104 -0.9784,1.65602 -1.5937,2.37747 -0.7156,-0.63363 -1.625,-1.37643 -1.625,-2.37747 0,-1.00105 0.5937,-1.439 1.5937,-1.439 z m -9.125,5.34932 c 0.077,0.44058 0.1412,1.15838 0.2188,1.62669 -0.4515,-0.0814 -0.9139,-0.16584 -1.0938,-0.25026 0.074,-1.11276 0.2639,-1.14712 0.875,-1.37643 z M 59.5,992.68022 c 0.4636,0.46739 0.5043,0.79545 0.5,1.31387 -0.2017,0.0686 -0.6541,0.0989 -1.0312,0.15641 -0.1293,-0.73376 0.3178,-1.11625 0.5312,-1.47028 z m -9.4687,4.06674 c 1.2231,0.9298 2.985,1.19912 4.3438,1.37638 -0.8114,5.64256 -1.6114,11.72936 -2.4688,17.26796 -1.3081,0 -2.4468,6e-4 -3.75,0 -0.7787,-5.5438 -1.6284,-11.5536 -2.4687,-17.17411 1.5885,-0.38965 3.2097,-0.73619 4.3437,-1.47023 z" fill="url(#grad2)" fill-opacity="1" stroke="none" marker="none" visibility="visible" display="inline" overflow="visible"/></g></svg>
