<svg xmlns:dc="http://purl.org/dc/elements/1.1/" xmlns:cc="http://creativecommons.org/ns#" xmlns:rdf="http://www.w3.org/1999/02/22-rdf-syntax-ns#"
  xmlns:svg="http://www.w3.org/2000/svg" xmlns="http://www.w3.org/2000/svg"
  xmlns:sodipodi="http://sodipodi.sourceforge.net/DTD/sodipodi-0.dtd"
  xmlns:inkscape="http://www.inkscape.org/namespaces/inkscape"
  viewBox="0 0 453.95416 396.45123750000005"
  fill="url(#grad2)"
  version="1.1" x="0px" y="0px"><g transform="translate(-209.889,-392.817)">
  <defs>
   <linearGradient id="grad2" x1="0%" y1="0%" x2="0%" y2="100%">
     <stop offset="0%" style="stop-color:rgb(117,214,167);stop-opacity:1" />
     <stop offset="100%" style="stop-color:rgb(87,192,241);stop-opacity:1" />
   </linearGradient>
 </defs>
  <path d="m 223.401,392.817 c -3.812,14.7886 -6.907,29.4836 -9.143,43.6095 l 446.371,0 c -2.11,-14.5403 -5.398,-29.0691 -9.79,-43.6095 l -427.438,0 z m -11.004,56.6361 c -1.575,12.5519 -2.345,24.8 -2.508,36.8131 l 453.815,0 c 0.415,-12.2617 -0.106,-24.5098 -1.458,-36.8131 -0.256,0.1088 -0.438,0.1822 -0.73,0.1822 l -448.233,0 c -0.255,0 -0.641,-0.037 -0.889,-0.1822 z m 142.965,11.4887 19.822,0 c 3.687,0 6.554,3.0735 6.554,6.6345 0,3.6872 -2.866,6.5536 -6.554,6.5536 l -19.822,0 c -3.562,0 -6.635,-2.8657 -6.635,-6.5536 0,-3.562 3.074,-6.6345 6.635,-6.6345 z m 61.732,0 41.831,0 c 3.687,0 6.635,3.0735 6.635,6.6345 0.03,3.6872 -2.91,6.5536 -6.635,6.5536 l -41.831,0 c -3.686,0 -6.552,-2.8657 -6.552,-6.5536 0,-3.562 2.865,-6.6345 6.552,-6.6345 z m 83.742,0 19.822,0 c 3.686,0 6.553,3.0735 6.553,6.6345 0,3.6872 -2.909,6.5536 -6.553,6.5536 l -19.822,0 c -3.563,0 -6.636,-2.8657 -6.636,-6.5536 0,-3.562 3.074,-6.6345 6.636,-6.6345 z m -290.543,38.5934 c 0.872,23.3636 5.153,45.5141 13.108,66.102 l 33.253,0 361.66,0 32.606,0 c 6.752,-22.0378 10.686,-44.0225 12.136,-66.102 l -452.763,0 z m 46.361,29.6933 361.66,0 0,23.2211 -361.66,0 0,-23.2211 z m 92.073,54.8561 c -3.645,0 -6.634,2.9897 -6.634,6.6342 l 0,38.9171 c 0,3.646 2.946,6.5536 6.634,6.5536 3.646,0 6.635,-2.9095 6.635,-6.5536 l 0,-38.9171 c 0,-3.6459 -2.99,-6.6342 -6.635,-6.6342 z m 56.232,0 c -3.646,0 -6.634,2.9897 -6.634,6.6342 l 0,112.7059 c 0,3.6459 2.949,6.5533 6.634,6.5533 3.646,0 6.554,-2.9095 6.554,-6.5533 l 0,-112.7059 c 0,-3.6459 -2.91,-6.6342 -6.554,-6.6342 z m 61.652,0 c -3.645,0 -6.634,2.9897 -6.634,6.6342 l 0,56.3127 c 0,3.6459 2.95,6.6341 6.634,6.6341 3.647,0 6.554,-2.9897 6.554,-6.6341 l 0,-56.3127 c 0.03,-3.6459 -2.91,-6.6342 -6.554,-6.6342 z m 58.416,0 c -3.647,0 -6.554,2.9897 -6.554,6.6342 l 0,69.6622 c 0,3.646 2.91,6.5536 6.554,6.5536 3.646,0 6.634,-2.9095 6.634,-6.5536 l 0,-69.6622 c 0,-3.6459 -2.989,-6.6342 -6.634,-6.6342 z" fill="url(#grad2)"/></g></svg>
