<svg xmlns="http://www.w3.org/2000/svg" data-name="Layer 1" viewBox="0 0 100 100" fill="#eeeeee" x="0px" y="0px"><title>setng cog</title><path d="M96.45,52.05L90,49a39.1,39.1,0,0,0-.88-7.38l5.59-4.49a6.21,6.21,0,0,0,1.52-7.91l-4.36-7.73a6.21,6.21,0,0,0-7.52-2.81l-6.78,2.44a40.51,40.51,0,0,0-6.05-4.75l0.74-7.05a6.22,6.22,0,0,0-4.51-6.66L59.16,0.25a6.22,6.22,0,0,0-7.32,3.36l-3.11,6.54a39,39,0,0,0-7.36.94L36.91,5.51A6.22,6.22,0,0,0,29,4L21.25,8.34a6.21,6.21,0,0,0-2.81,7.54l2.46,6.84a37.83,37.83,0,0,0-4.55,5.88L9.3,27.85a6.22,6.22,0,0,0-6.66,4.51L0.23,40.9a6.23,6.23,0,0,0,3.34,7.32l6.58,3.11a39,39,0,0,0,.94,7.36L5.55,63.13A6.23,6.23,0,0,0,4,71l4.36,7.73a6.23,6.23,0,0,0,7.54,2.81l6.84-2.46a41.34,41.34,0,0,0,5.66,4.43l-0.78,7.13a6.22,6.22,0,0,0,4.51,6.66l8.56,2.4A6.23,6.23,0,0,0,48,96.39l3.07-6.48A42.35,42.35,0,0,0,58.48,89L63,94.61a6.3,6.3,0,0,0,4.86,2.32,6.23,6.23,0,0,0,3-.8l7.73-4.36a6.21,6.21,0,0,0,2.81-7.54L79,77.48a39.72,39.72,0,0,0,4.59-5.84l7.13,0.78a6.22,6.22,0,0,0,6.66-4.51l2.38-8.54A6.16,6.16,0,0,0,96.45,52.05Zm-30.94,2.3A16.07,16.07,0,1,1,54.38,34.55,16.06,16.06,0,0,1,65.51,54.36Z"/><text x="0" y="115" fill="#000000" font-size="5px" font-weight="bold" font-family="'Helvetica Neue', Helvetica, Arial-Unicode, Arial, Sans-serif">Created by i cons</text><text x="0" y="120" fill="#000000" font-size="5px" font-weight="bold" font-family="'Helvetica Neue', Helvetica, Arial-Unicode, Arial, Sans-serif">from the Noun Project</text></svg>
