<svg xmlns="http://www.w3.org/2000/svg"
  xmlns:xlink="http://www.w3.org/1999/xlink"
  version="1.0" x="0px" y="0px"
  viewBox="0 0 100 100"
  enable-background="new 0 0 100 100"
  fill="url(#grad2)"
   xml:space="preserve">
   <defs>
    <linearGradient id="grad2" x1="0%" y1="0%" x2="0%" y2="100%">
      <stop offset="0%" style="stop-color:rgb(117,214,167);stop-opacity:1" />
      <stop offset="100%" style="stop-color:rgb(87,192,241);stop-opacity:1" />
    </linearGradient>
  </defs>
   <path d="M46.7661934,87.2618942c-4.8163338-7.3781662-2.7304611-17.2685776,4.6581192-22.0919952  c4.4716072-3.0786476,6.963562-6.8859711,8.3858261-11.8638954c1.2836151-4.4921455,1.438797-9.04636,0.6285248-13.3421631  c-4.2958488-0.8103142-8.850399-0.6551323-13.3428383,0.6281433c-4.9779663,1.4222641-8.7846146,3.9146004-11.863224,8.3858261  c-4.8231239,7.3892975-14.7142029,9.474453-22.0923691,4.6581192c-4.017787-2.622551-6.46631-6.7824059-7.0812979-11.2006683  c-1.9802399,10.9345016,0.0512772,22.6172447,6.6049194,32.6574287c1.6753607,2.5658798,3.5685225,4.9040451,5.6378222,7.0080948  c2.1037102,2.0692978,4.4415398,3.9625015,7.0081348,5.6377792c10.0398102,6.5533447,21.7229309,8.5855408,32.6577263,6.6046219  C53.5489388,93.7285385,49.3890839,91.2800598,46.7661934,87.2618942z"/>
   <path d="M13.2495337,49.8933754c6.0365267,3.940239,14.2557039,0.3980751,19.6623993-6.2443314  c2.0938873-2.5719528,11.9516106-11.600769,25.4870758-10.1623116c-3.0931168-6.8495388-8.8617859-12.4063549-16.4680443-14.9749317  c-12.3894444-4.1838064-25.3980541,1.2239017-31.8042736,12.1992226c-0.2526321,0.531662-0.495904,1.0666981-0.725976,1.6044331  C6.5477533,39.0266838,8.016572,46.4773788,13.2495337,49.8933754z"/>
   <path d="M81.8903198,58.4708176c-2.568573-7.6052017-8.1250534-13.3738708-14.9748917-16.4673653  c1.4384155,13.5351257-7.5900574,23.3931465-10.1623459,25.4867363c-6.6427879,5.4066925-10.1841965,13.6262131-6.2443352,19.662735  c3.4159546,5.2329636,10.8663559,6.7017822,17.5782967,3.8484802c0.5380325-0.230072,1.072731-0.4729614,1.6050644-0.725975  C80.6667557,83.8691711,86.0740891,70.8603058,81.8903198,58.4708176z"/>
   <path d="M88.1387024,24.9092922c-1.6752701-2.5665531-3.5681-4.9043846-5.6377335-7.0080948  c-2.1037979-2.0692997-4.4415436-3.9625034-7.0077972-5.6377802C55.7380409-0.6314204,29.6221466,3.9693487,15.3667793,22.2314129  c14.0900249-12.7254887,37.5422058-11.2013445,47.9936676,8.5133457c0.7833214,1.4782639,1.4249611,2.9308891,1.9417381,4.3551788  c1.4246292,0.516819,2.8772964,1.1584587,4.3551788,1.9417839c19.7154083,10.4517517,21.2388382,33.9042702,8.5133438,47.9939995  C96.4331131,70.7800217,101.0338821,44.664463,88.1387024,24.9092922z"/>

</svg>
